<svg width="70" height="103" viewBox="0 0 70 103" fill="none" xmlns="http://www.w3.org/2000/svg">
<path d="M0 2C0 0.895429 0.895431 0 2 0H68C69.1046 0 70 0.895431 70 2V99.3367C70 100.919 68.2495 101.875 66.9185 101.019L36.0815 81.1953C35.4227 80.7717 34.5773 80.7717 33.9185 81.1953L3.08152 101.019C1.75049 101.875 0 100.919 0 99.3367V2Z" fill="#4285F4"/>
<path d="M35 13L41.7595 26.6963L56.8743 28.8926L45.9371 39.5537L48.5191 54.6074L35 47.5L21.4809 54.6074L24.0628 39.5537L13.1257 28.8926L28.2405 26.6963L35 13Z" fill="white"/>
</svg>
