<svg width="18" height="20" viewBox="0 0 18 20" fill="none" xmlns="http://www.w3.org/2000/svg">
<g clip-path="url(#clip0_1377_4040)">
<rect x="12.1465" y="0.329285" width="7.24739" height="8.9425" transform="rotate(40 12.1465 0.329285)" fill="#BDBDBD"/>
<path d="M12.7785 16.488C13.2858 15.8834 13.6446 15.1642 13.8343 14.3715C14.024 13.5788 14.0409 12.7281 13.8841 11.868C13.7273 11.0079 13.3999 10.1552 12.9204 9.35864C12.441 8.56206 11.819 7.8372 11.0899 7.22543C10.3608 6.61366 9.53897 6.12697 8.67125 5.79315C7.80352 5.45932 6.90693 5.2849 6.03266 5.27984C5.15839 5.27478 4.32356 5.43918 3.57584 5.76366C2.82813 6.08813 2.18216 6.56633 1.67484 7.17094L7.22666 11.8295L12.7785 16.488Z" fill="#BDBDBD"/>
<path d="M0.552226 19.7844L6.29498 10.0111L9.17979 12.4318L0.552226 19.7844Z" fill="#BDBDBD"/>
</g>
<defs>
<clipPath id="clip0_1377_4040">
<rect width="18" height="20" fill="white"/>
</clipPath>
</defs>
</svg>
