<svg xmlns="http://www.w3.org/2000/svg" width="30" height="30" viewBox="0 0 30 30" fill="none">
<rect width="5.98372" height="7.18625" transform="matrix(0.764573 0.644537 -0.641036 0.767511 17.5547 7.92841)" fill="#BDBDBD"/>
<path d="M18.2492 21.0974C18.6558 20.6106 18.9401 20.0288 19.0858 19.3852C19.2315 18.7417 19.2358 18.0489 19.0985 17.3466C18.9612 16.6442 18.6849 15.946 18.2854 15.2918C17.8859 14.6376 17.3711 14.0402 16.7703 13.5337C16.1695 13.0273 15.4945 12.6216 14.7839 12.34C14.0732 12.0584 13.3408 11.9063 12.6285 11.8923C11.9162 11.8784 11.2379 12.003 10.6323 12.2589C10.0268 12.5148 9.50582 12.8971 9.09924 13.3839L13.6742 17.2406L18.2492 21.0974Z" fill="#BDBDBD"/>
<path d="M8.32575 23.6455L12.8954 15.7491L15.2727 17.7531L8.32575 23.6455Z" fill="#BDBDBD"/>
<rect x="0.5" y="0.5" width="29" height="29" rx="14.5" stroke="#BDBDBD"/>
</svg>