<svg width="50" height="50" viewBox="0 0 50 50" fill="none" xmlns="http://www.w3.org/2000/svg">
<circle cx="24.9508" cy="20.3243" r="2.82432" fill="white" stroke="white" stroke-width="3"/>
<path d="M25.3651 27.5019C27.3197 27.4988 28.3743 27.4972 29.6239 28.375C30.3403 29.0534 30.9521 30.1872 31.2733 31.4027C31.2408 31.4383 31.1478 31.5 31 31.5H25L19 31.5C18.8523 31.5 18.7555 31.4383 18.718 31.3976C18.7131 31.3923 18.7098 31.388 18.7076 31.3848C18.708 31.3825 18.7086 31.3796 18.7094 31.3761C19.0078 30.1524 19.5807 29.0374 20.2779 28.375C21.53 27.4975 22.6635 27.4991 24.6448 27.5019C24.7603 27.5021 24.8786 27.5023 25 27.5023C25.1252 27.5023 25.2468 27.5021 25.3651 27.5019Z" fill="white" stroke="white" stroke-width="3"/>
</svg>
