<svg width="18" height="19" viewBox="0 0 18 19" fill="none" xmlns="http://www.w3.org/2000/svg">
<rect x="11.9053" y="2.14777" width="5" height="6" transform="rotate(40 11.9053 2.14777)" fill="#BDBDBD"/>
<path d="M12.4873 13.1219C12.8277 12.7162 13.0657 12.2314 13.1877 11.6951C13.3097 11.1588 13.3133 10.5815 13.1983 9.99623C13.0834 9.41094 12.8521 8.8291 12.5176 8.28392C12.1832 7.73875 11.7522 7.24092 11.2492 6.81886C10.7462 6.3968 10.1811 6.05877 9.5861 5.82408C8.99113 5.58939 8.37796 5.46263 7.78159 5.45104C7.18523 5.43944 6.61735 5.54325 6.11038 5.75652C5.60341 5.96979 5.16728 6.28835 4.82688 6.69402L8.65711 9.90796L12.4873 13.1219Z" fill="#BDBDBD"/>
<path d="M4.17906 15.2454L8.00484 8.66501L9.99509 10.335L4.17906 15.2454Z" fill="#BDBDBD"/>
</svg>
