<svg width="19" height="19" viewBox="0 0 19 19" fill="none" xmlns="http://www.w3.org/2000/svg">
<path d="M10.2281 4.29901L14.3996 8.47057L7.11478 15.7554L1.25993 17.3676L2.87214 11.5128L12.5742 1.81071C12.7209 1.71895 13.1497 1.48531 13.7237 1.45162C14.2966 1.41801 15.1305 1.57406 16.092 2.53553C17.0535 3.49701 17.2095 4.33099 17.1759 4.90381C17.1423 5.47783 16.9086 5.90663 16.8169 6.05335L15.8138 7.05635L11.6423 2.88479L10.2281 4.29901ZM12.5925 1.79238C12.5929 1.79197 12.5929 1.79203 12.5924 1.79248L12.5925 1.79238ZM16.8352 6.03502L16.8351 6.03512C16.8353 6.03487 16.8354 6.03474 16.8355 6.03474C16.8355 6.03474 16.8354 6.03483 16.8352 6.03502Z" stroke="#828282" stroke-width="2"/>
</svg>
