<svg xmlns="http://www.w3.org/2000/svg" width="25" height="25" viewBox="0 0 25 25" fill="none">
<rect x="0.5" y="0.5" width="24" height="24" rx="12" fill="#4285F4"/>
<rect x="0.5" y="0.5" width="24" height="24" rx="12" stroke="#4285F4"/>
<rect width="4.98643" height="5.98854" transform="matrix(0.764573 0.644537 -0.641036 0.767511 14.6289 6.60698)" fill="white"/>
<path d="M15.209 17.5812C15.5478 17.1755 15.7847 16.6907 15.9061 16.1544C16.0276 15.6181 16.0311 15.0408 15.9167 14.4555C15.8023 13.8702 15.572 13.2884 15.2391 12.7432C14.9062 12.198 14.4772 11.7002 13.9766 11.2781C13.4759 10.8561 12.9134 10.518 12.3212 10.2833C11.729 10.0486 11.1186 9.92189 10.525 9.91029C9.93143 9.8987 9.36618 10.0025 8.86156 10.2158C8.35693 10.429 7.92282 10.7476 7.584 11.1533L11.3965 14.3672L15.209 17.5812Z" fill="white"/>
<path d="M6.93828 19.7046L10.7464 13.1242L12.7274 14.7943L6.93828 19.7046Z" fill="white"/>
</svg>