<svg width="25" height="25" viewBox="0 0 25 25" fill="none" xmlns="http://www.w3.org/2000/svg">
<path fill-rule="evenodd" clip-rule="evenodd" d="M17.1203 19.2435C15.3447 20.4993 13.1656 21.2389 10.8107 21.2389C4.8401 21.2389 0 16.4844 0 10.6195C0 4.7545 4.8401 0 10.8107 0C16.7812 0 21.6213 4.7545 21.6213 10.6195C21.6213 13.3708 20.5561 15.8778 18.8088 17.7642L24.6402 23.0833C25.096 23.4991 25.1223 24.199 24.6989 24.6466C24.2755 25.0943 23.5628 25.1201 23.107 24.7043L17.1203 19.2435ZM19.3684 10.6195C19.3684 15.2632 15.5364 19.0265 10.8107 19.0265C6.08494 19.0265 2.25288 15.2632 2.25288 10.6195C2.25288 5.97576 6.08494 2.21239 10.8107 2.21239C15.5364 2.21239 19.3684 5.97576 19.3684 10.6195Z" fill="#BDBDBD"/>
</svg>
